<svg width="120" height="120" viewBox="0 0 120 120" fill="none" xmlns="http://www.w3.org/2000/svg">
    <path d="M118.102 73.8804L96.02 60.5625C95.4103 60.1941 94.7114 59.9994 93.999 59.9994C93.2866 59.9994 92.5877 60.1941 91.978 60.5625L83.82 65.4844L68.7 55.4006L84.1 46.1107C84.6776 45.7598 85.1555 45.2667 85.4881 44.6784C85.8208 44.0902 85.997 43.4265 86 42.7507V17.251C85.9986 16.574 85.8233 15.9088 85.4909 15.3191C85.1586 14.7293 84.6803 14.2348 84.102 13.883L62.02 0.563144C61.4103 0.194732 60.7114 0 59.999 0C59.2866 0 58.5877 0.194732 57.978 0.563144L35.898 13.883C35.3197 14.2348 34.8414 14.7293 34.5091 15.3191C34.1767 15.9088 34.0014 16.574 34 17.251V42.7507C34.0014 43.4276 34.1767 44.0928 34.5091 44.6826C34.8414 45.2723 35.3197 45.7668 35.898 46.1187L51.298 55.4086L36.178 65.4844L28.018 60.5625C27.4083 60.1941 26.7094 59.9994 25.997 59.9994C25.2846 59.9994 24.5857 60.1941 23.976 60.5625L1.896 73.8824C1.3183 74.2347 0.840643 74.7294 0.508692 75.319C0.176742 75.9087 0.00159651 76.5736 0 77.2503L0 102.75C0.00184694 103.427 0.177296 104.093 0.509586 104.683C0.841875 105.272 1.3199 105.767 1.898 106.12L23.98 119.438C24.59 119.806 25.2887 120 26.001 120C26.7133 120 27.412 119.806 28.022 119.438L50.104 106.118C50.6817 105.766 51.1594 105.271 51.4913 104.681C51.8233 104.092 51.9984 103.427 52 102.75V94.0001H68V102.75C68.0018 103.427 68.1773 104.093 68.5096 104.683C68.8419 105.272 69.3199 105.767 69.898 106.12L91.98 119.438C92.59 119.806 93.2887 120 94.001 120C94.7133 120 95.412 119.806 96.022 119.438L118.104 106.118C118.682 105.766 119.159 105.271 119.491 104.681C119.823 104.092 119.998 103.427 120 102.75V77.2503C119.998 76.5732 119.823 75.9079 119.49 75.3179C119.158 74.7279 118.68 74.2329 118.102 73.8804ZM93.956 63.9885L114.684 76.4923L93.976 88.9622L73.31 76.4923L93.956 63.9885ZM62 54.8286V32.4288C62.028 32.4128 62.062 32.4068 62.09 32.3908L82 20.3709L82.032 42.6927L62 54.8286ZM59.956 3.98911L80.684 16.493L59.976 28.9648L39.31 16.493L59.956 3.98911ZM37.968 20.3549L57.926 32.4008C57.95 32.4148 57.976 32.4188 58 32.4308V54.7826L38 42.7507L37.968 20.3549ZM25.956 63.9885L46.684 76.4923L25.976 88.9622L5.31 76.4923L25.956 63.9885ZM4 102.75L3.97 80.3503L23.926 92.4002C23.95 92.4142 23.976 92.4182 24 92.4322V114.782L4 102.75ZM28 114.828V92.4282C28.028 92.4122 28.062 92.4082 28.09 92.3902L48 80.3703L48.032 102.694L28 114.828ZM52 90.0002V77.2503C51.9982 76.5732 51.8227 75.9079 51.4904 75.3179C51.1581 74.7279 50.6801 74.2329 50.102 73.8804L39.966 67.7684L55.086 57.6925L57.98 59.4385C58.59 59.8063 59.2887 60.0006 60.001 60.0006C60.7133 60.0006 61.412 59.8063 62.022 59.4385L64.914 57.6925L80.034 67.7684L69.896 73.8824C69.3183 74.2347 68.8406 74.7294 68.5087 75.319C68.1767 75.9087 68.0016 76.5736 68 77.2503V90.0002H52ZM72 102.75L71.97 80.3503L91.926 92.4002C91.95 92.4142 91.976 92.4182 92 92.4322V114.782L72 102.75ZM96 114.828V92.4282C96.028 92.4122 96.062 92.4082 96.09 92.3902L116 80.3703L116.032 102.694L96 114.828Z" fill="white"/>
</svg>
    